<svg width="1189" height="134" viewBox="0 0 1189 134" fill="none" xmlns="http://www.w3.org/2000/svg">
<g clip-path="url(#clip0_587_35)">
<path d="M250.54 0.0996094H225.93V133.31H250.54V0.0996094Z" fill="#F4F3F3"></path>
<path d="M470.931 66.5895L466.491 64.1396L470.641 61.2195C478.321 55.8295 482.071 49.6996 482.071 37.7896C482.071 25.8796 478.781 14.7796 472.041 8.91956C465.251 3.02956 454.461 0.0395508 439.961 0.0395508L299.631 0.0895691V133.25L443.831 133.06C458.271 133.06 469.061 129.9 475.821 123.64C482.521 117.47 485.931 108.17 485.931 96.0096C485.931 88.4996 484.691 82.3296 482.251 77.6896C479.861 73.1496 476.041 69.3995 470.951 66.5995L470.931 66.5895ZM324.271 19.1496H436.271C444.031 19.1496 457.051 21.7896 457.051 37.7996C457.051 50.1696 449.671 56.2396 436.271 56.2396H324.271V19.1496ZM440.151 114.39H324.271V74.8696H440.151C453.551 74.8696 460.911 81.8196 460.911 94.4396C460.911 107.06 453.551 114.39 440.151 114.39Z" fill="#F4F3F3"></path>
<path d="M534.98 133.31H711.56V114.28H559.62V74.9996H711.56V56.2996H559.62V19.1396L711.56 19.0896V0.0395508L534.98 0.109558V133.32V133.31Z" fill="#F4F3F3"></path>
<path d="M1081.09 56.2899V74.9699H1170.09V114.44H1069.32C1054.89 113.76 1043.71 109.47 1036.07 101.7C1028.42 93.9099 1024.54 82.4799 1024.54 66.6099C1024.54 49.8699 1028.95 37.4499 1037.69 29.7099C1046.31 22.0599 1059.62 19.1799 1077.21 19.1799H1188.15V0.149902H1075.11C1050.33 0.149902 1031.3 4.8799 1018.48 16.2099C1005.77 27.4199 999.33 44.3999 999.33 66.6299C999.33 88.8599 1005.65 105.44 1018.1 116.68C1030.68 127.98 1048.53 133.35 1071.23 133.35H1188.18V56.3399H1081.06L1081.09 56.2899Z" fill="#F4F3F3"></path>
<path d="M938.481 64.9398C945.361 58.5298 950.031 49.6498 950.031 37.7598C950.031 25.8698 944.421 14.7498 937.651 8.88977C930.861 2.99977 922.411 0.00976562 907.931 0.00976562H760.721V133.29H785.331V74.8798C785.331 74.8798 866.541 74.8797 897.391 74.8997L929.651 133.26L957.401 133L924.121 72.8298C929.621 71.1998 934.581 68.5898 938.451 64.9598L938.481 64.9398ZM785.361 19.1098H904.271C912.031 19.1098 925.051 22.9298 925.051 37.7598C925.051 50.1298 917.671 56.1998 904.271 56.1998H785.361V19.1098Z" fill="#F4F3F3"></path>
<path d="M152.18 56.2896H24.7802V0.0996094H0.160156V133.31H24.7802V74.9996H152.18V133.31H176.8V0.0996094H152.18V56.2896Z" fill="#F4F3F3"></path>
</g>
<defs>
<clipPath id="clip0_587_35">
<rect width="1189" height="134" fill="white"></rect>
</clipPath>
</defs>
</svg>