<svg width="34" height="32" viewBox="0 0 34 32" fill="none" xmlns="http://www.w3.org/2000/svg">
<path d="M17.6109 11.8125C15.9574 12.4625 12.6504 13.8 7.69648 15.8313C6.89297 16.1313 6.46797 16.425 6.42148 16.7188C6.3512 17.2038 7.00406 17.3972 7.88807 17.6591C8.0064 17.6941 8.12887 17.7304 8.2543 17.7688C9.12422 18.0313 10.293 18.3438 10.8973 18.3563C11.4551 18.3625 12.066 18.15 12.7434 17.7125C17.3785 14.7688 19.7625 13.2813 19.9152 13.25C20.0215 13.225 20.1676 13.2 20.2672 13.2813C20.3668 13.3625 20.3602 13.5188 20.3469 13.5625C20.2853 13.8234 17.6719 16.1087 16.3723 17.2452C15.9908 17.5788 15.7225 17.8134 15.6652 17.8688C15.5308 18.0006 15.3936 18.1252 15.262 18.2448C14.4574 18.9756 13.8562 19.5218 15.3 20.4188C16.0241 20.8668 16.5967 21.2344 17.1736 21.6046C17.7554 21.9781 18.3416 22.3543 19.0918 22.8188C19.288 22.9406 19.4756 23.0669 19.6583 23.19C20.3661 23.6666 21.0015 24.0946 21.7879 24.025C22.2461 23.9875 22.7109 23.5875 22.95 22.3875C23.5145 19.55 24.6234 13.4125 24.8758 10.8813C24.9023 10.6563 24.8691 10.375 24.8492 10.25C24.8293 10.125 24.7828 9.95001 24.6102 9.81876C24.4043 9.66251 24.0922 9.63126 23.9527 9.63126C23.3152 9.64376 22.3324 9.96251 17.6109 11.8125Z" fill="white"></path>
<path fill-rule="evenodd" clip-rule="evenodd" d="M0 16C0 7.1625 7.61016 0 17 0C26.3898 0 34 7.1625 34 16C34 24.8375 26.3898 32 17 32C7.61016 32 0 24.8375 0 16ZM32.1141 16.0187C32.1141 8.15625 25.3539 1.78125 17 1.775C14.9813 1.76875 12.9758 2.15 11.1164 2.8875C3.41992 5.95 -0.185938 14.3 3.06797 21.5438C6.32188 28.7875 15.1871 32.175 22.8836 29.1187C28.475 26.8875 32.1074 21.7312 32.1141 16.0187Z" fill="white"></path>
</svg>