<svg width="32" height="32" viewBox="0 0 32 32" fill="none" xmlns="http://www.w3.org/2000/svg">
<path fill-rule="evenodd" clip-rule="evenodd" d="M20.7375 11.3813C20.7375 14 18.6125 16.1188 16 16.1188C13.3875 16.1188 11.2625 14 11.2625 11.3813C11.2625 8.7625 13.3812 6.64375 16 6.64375C18.6187 6.64375 20.7375 8.7625 20.7375 11.3813ZM18.3312 11.3813C18.3312 10.0938 17.2875 9.05 16 9.05C14.7125 9.05 13.6687 10.0938 13.6687 11.3813C13.6687 12.6688 14.7125 13.7125 16 13.7125C17.2875 13.7125 18.3312 12.6688 18.3312 11.3813Z" fill="white"></path>
<path d="M19.4688 16.4938C20.45 15.7188 21.1937 16.1625 21.4625 16.7C21.9312 17.6313 21.4 18.0875 20.2 18.8625C19.1937 19.5062 17.8187 19.75 16.9125 19.8438L20.4625 23.3938C20.8875 23.8188 20.8875 24.5062 20.4625 24.9313L20.3375 25.0563C19.9125 25.4813 19.225 25.4813 18.8 25.0563L16.0062 22.2625L13.2125 25.0563C12.7875 25.4813 12.1 25.4813 11.675 25.0563L11.55 24.9313C11.125 24.5062 11.125 23.8188 11.55 23.3938L15.1 19.8438C14.2 19.75 12.8062 19.5063 11.7875 18.8563C10.6 18.0875 10.0687 17.6375 10.5375 16.7C10.8062 16.1625 11.55 15.7188 12.5312 16.4938C13.8625 17.5438 16 17.5438 16 17.5438C16 17.5438 18.1375 17.5438 19.4688 16.4938Z" fill="white"></path>
<path fill-rule="evenodd" clip-rule="evenodd" d="M0 16C0 7.1625 7.16251 0 16 0C24.8375 0 32 7.1625 32 16C32 24.8375 24.8375 32 16 32C7.16251 32 0 24.8375 0 16ZM30.225 16.0188C30.225 8.15625 23.8625 1.78125 16 1.775C14.1 1.76875 12.2125 2.15 10.4625 2.8875C3.21875 5.95 -0.175003 14.3 2.8875 21.5437C5.95 28.7875 14.2937 32.175 21.5375 29.1187C26.8 26.8875 30.2188 21.7312 30.225 16.0188Z" fill="white"></path>
</svg>