<svg width="32" height="32" viewBox="0 0 32 32" fill="none" xmlns="http://www.w3.org/2000/svg">
<path fill-rule="evenodd" clip-rule="evenodd" d="M20.7656 8.00244H7.08168V24H10.9699V18.7952H18.135L21.5343 24H25.8879L22.1384 18.7709C23.5207 18.56 24.1413 18.1237 24.6538 17.4037C25.1662 16.6837 25.4225 15.5321 25.4225 13.9976V12.7976C25.4225 11.8861 25.3284 11.1661 25.1662 10.6158C25.004 10.063 24.7243 9.58305 24.327 9.15396C23.9086 8.74668 23.4431 8.4582 22.8836 8.26668C22.3241 8.09941 21.6259 8.00244 20.7656 8.00244ZM20.1379 15.2703H10.9699V11.5297H20.1379C20.6739 11.5297 21.0453 11.6267 21.2334 11.794C21.4191 11.9612 21.5366 12.274 21.5366 12.7297V14.0727C21.5366 14.5527 21.4214 14.8655 21.2334 15.0327C21.0477 15.2 20.6739 15.2727 20.1379 15.2727V15.2703Z" fill="white"></path>
<path fill-rule="evenodd" clip-rule="evenodd" d="M0 16C0 7.1625 7.16249 0 16 0C24.8375 0 32 7.1625 32 16C32 24.8375 24.8375 32 16 32C7.16249 32 0 24.8375 0 16ZM16.5785 1.78699C16.3866 1.77918 16.1938 1.77515 16 1.775C14.1 1.76875 12.2125 2.15 10.4625 2.8875C3.21875 5.95 -0.174997 14.3 2.8875 21.5438C5.94999 28.7875 14.2937 32.175 21.5375 29.1187C26.8 26.8875 30.2188 21.7312 30.225 16.0187C30.225 15.978 30.2248 15.9372 30.2245 15.8965C29.1163 15.7665 28.0433 15.5163 27.0187 15.1588C27.0516 14.7782 27.0657 14.3903 27.0657 13.9976V12.7976C27.0657 11.7794 26.9623 10.88 26.7366 10.1212C26.4945 9.30182 26.0784 8.59394 25.5189 7.98545L25.4884 7.95152L25.4555 7.92C24.8607 7.3406 24.186 6.92606 23.4032 6.65454L23.3421 6.63515C22.5969 6.41212 21.7365 6.30303 20.7633 6.30303H17.7331C17.1463 4.89099 16.7499 3.37433 16.5785 1.78699Z" fill="white"></path>
</svg>