<svg width="1840" height="206" viewBox="0 0 1840 206" fill="none" xmlns="http://www.w3.org/2000/svg">
<path d="M387.796 0.145508H349.66V205.927H387.796V0.145508Z" fill="#F4F3F3"></path>
<path d="M729.123 102.855L722.246 99.0713L728.687 94.5597C740.586 86.228 746.371 76.7686 746.371 58.3589C746.371 39.9492 741.277 22.8128 730.833 13.7535C720.317 4.6578 703.615 0.0371094 681.163 0.0371094L463.812 0.109946V205.818L687.131 205.527C709.51 205.527 726.212 200.652 736.692 190.974C747.063 181.442 752.339 167.071 752.339 148.297C752.339 136.691 750.411 127.159 746.626 119.991C742.915 112.97 737.02 107.185 729.123 102.855ZM501.984 29.58H675.45C687.458 29.58 707.617 33.655 707.617 58.3953C707.617 77.4963 696.191 86.8829 675.45 86.8829H501.984V29.58ZM681.454 176.712H501.984V115.662H681.454C702.196 115.662 713.622 126.395 713.622 145.896C713.622 165.397 702.196 176.712 681.454 176.712Z" fill="#F4F3F3"></path>
<path d="M828.318 205.928H1101.82V176.53H866.49V115.844H1101.82V86.9558H866.49V29.5435L1101.82 29.4709V0.0371094L828.318 0.146365V205.928Z" fill="#F4F3F3"></path>
<path d="M1674.14 86.9551V115.807H1811.98V176.784H1655.91C1633.57 175.729 1616.25 169.107 1604.42 157.101C1592.56 145.058 1586.55 127.413 1586.55 102.891C1586.55 77.0226 1593.39 57.8489 1606.93 45.8789C1620.29 34.0545 1640.88 29.6157 1668.14 29.6157H1839.96V0.218262H1664.86C1626.51 0.218262 1597.03 7.53124 1577.16 25.0314C1557.48 42.3496 1547.51 68.5818 1547.51 102.927C1547.51 137.273 1557.3 162.886 1576.58 180.241C1596.05 197.704 1623.71 206 1658.86 206H1840V87.0279H1674.1L1674.14 86.9551Z" fill="#F4F3F3"></path>
<path d="M1453.26 100.308C1463.92 90.4114 1471.16 76.6951 1471.16 58.3218C1471.16 39.9485 1462.47 22.7757 1451.99 13.7164C1441.47 4.62069 1428.37 0 1405.95 0H1177.94V205.891H1216.08V115.661C1216.08 115.661 1341.84 115.661 1389.62 115.698L1439.58 205.854L1482.55 205.454L1431.03 112.496C1439.54 109.986 1447.22 105.947 1453.22 100.344L1453.26 100.308ZM1216.11 29.5067H1400.28C1412.29 29.5067 1432.45 35.4006 1432.45 58.3218C1432.45 77.4228 1421.02 86.8096 1400.28 86.8096H1216.11V29.5067Z" fill="#F4F3F3"></path>
<path d="M235.436 86.9549H38.1354V0.145508H0V205.927H38.1354V115.843H235.436V205.927H273.571V0.145508H235.436V86.9549Z" fill="#F4F3F3"></path>
</svg>