<svg width="33" height="32" viewBox="0 0 33 32" fill="none" xmlns="http://www.w3.org/2000/svg">
<path d="M17.7246 22.8375H16.2358C16.2358 22.8375 16.2353 22.8375 16.2346 22.8376C16.1631 22.8411 12.913 23.0017 10.0483 20.1C6.89005 16.9125 4.10567 10.5875 4.10567 10.5875C4.10567 10.5875 3.94454 10.175 4.11856 9.975C4.31837 9.74375 4.85333 9.73125 4.85333 9.73125L8.41114 9.70625C8.61739 9.74375 8.8172 9.81875 8.99122 9.93125C9.12657 10.0437 9.2297 10.1812 9.30059 10.3375C9.68087 11.2625 10.132 12.1562 10.6348 13.025C12.1236 15.5187 12.8197 16.0688 13.3225 15.8C14.0572 15.4125 13.8381 12.275 13.8381 12.275C13.8381 12.275 13.8445 11.1375 13.4643 10.6313C13.1678 10.2438 12.6006 10.125 12.3557 10.0938C12.1559 10.0687 12.4846 9.6125 12.91 9.4125C13.5545 9.1125 14.6824 9.09375 16.0231 9.10625C17.0608 9.11875 17.3637 9.18125 17.7697 9.275C18.717 9.49623 18.6873 10.206 18.6233 11.7346C18.6041 12.1925 18.5818 12.7238 18.5818 13.3375C18.5818 13.4759 18.5776 13.6237 18.5732 13.7757C18.5506 14.5572 18.5246 15.4527 19.0588 15.7875C19.3295 15.9563 19.9998 15.8125 21.6691 13.0625C22.4619 11.7625 23.0549 10.2312 23.0549 10.2312C23.0549 10.2312 23.1774 9.9625 23.3836 9.84375C23.5899 9.725 23.867 9.7625 23.867 9.7625L27.6182 9.7375C27.6182 9.7375 28.7461 9.60625 28.9266 10.1C29.1199 10.6188 28.5076 11.825 26.9736 13.8062C25.5188 15.6872 24.811 16.3791 24.8777 16.9917C24.9262 17.4375 25.385 17.8414 26.2647 18.6313C28.1237 20.3056 28.6125 21.1795 28.7217 21.3748C28.7295 21.3887 28.7354 21.3992 28.7397 21.4062C29.5647 22.7313 27.8244 22.8375 27.8244 22.8375L24.4986 22.8813C24.4986 22.8813 23.7832 23.0125 22.8422 22.3875C22.3456 22.0599 21.8613 21.5223 21.4004 21.0108C20.7008 20.2343 20.0553 19.5179 19.5035 19.6875C18.5754 19.975 18.6076 21.9125 18.6076 21.9125C18.6076 21.9125 18.6141 22.3312 18.4014 22.55C18.1758 22.7875 17.7246 22.8375 17.7246 22.8375Z" fill="white"></path>
<path fill-rule="evenodd" clip-rule="evenodd" d="M0 16C0 7.1625 7.38633 0 16.5 0C25.6137 0 33 7.1625 33 16C33 24.8375 25.6137 32 16.5 32C7.38633 32 0 24.8375 0 16ZM31.1695 16.0187C31.1695 8.15625 24.6082 1.78125 16.5 1.775C14.5406 1.76875 12.5941 2.15 10.7895 2.8875C3.31934 5.95 -0.180469 14.3 2.97773 21.5438C6.13594 28.7875 14.7404 32.175 22.2105 29.1187C27.6375 26.8875 31.1631 21.7312 31.1695 16.0187Z" fill="white"></path>
</svg>