<svg width="30" height="24" viewBox="0 0 30 24" fill="none" xmlns="http://www.w3.org/2000/svg">
<path d="M29.0607 10.9395C29.6464 11.5252 29.6464 12.475 29.0607 13.0608L19.5147 22.6067C18.9289 23.1925 17.9792 23.1925 17.3934 22.6067C16.8076 22.0209 16.8076 21.0712 17.3934 20.4854L25.8787 12.0001L17.3934 3.51484C16.8076 2.92905 16.8076 1.97931 17.3934 1.39352C17.9792 0.807733 18.9289 0.807733 19.5147 1.39352L29.0607 10.9395ZM2 13.5001C1.17157 13.5001 0.5 12.8285 0.5 12.0001C0.5 11.1717 1.17157 10.5001 2 10.5001L2 13.5001ZM28 13.5001L2 13.5001L2 10.5001L28 10.5001L28 13.5001Z" fill="white" fill-opacity="0.5"></path>
</svg>